<?xml version="1.0" encoding="UTF-8"?>
<svg width="300px" height="57px" viewBox="0 0 300 57" version="1.1" xmlns="http://www.w3.org/2000/svg" xmlns:xlink="http://www.w3.org/1999/xlink">
    <!-- Generator: Sketch 48.1 (47250) - http://www.bohemiancoding.com/sketch -->
    <title>Group</title>
    <desc>Created with Sketch.</desc>
    <defs></defs>
    <g id="Page-1" stroke="none" stroke-width="1" fill="none" fill-rule="evenodd">
        <g id="Group" fill="#000000">
            <path d="M65.9418605,18.4418605 C66.2906994,18.6511638 66.4651163,18.9418586 66.4651163,19.3139535 C66.4651163,19.5232569 66.3837217,19.7558127 66.2209302,20.0116279 C66.0116269,20.2674431 65.7441877,20.3953488 65.4186047,20.3953488 C65.2325572,20.3953488 65.0465126,20.3372099 64.8604651,20.2209302 C62.9999907,18.9883659 60.9651273,18.372093 58.755814,18.372093 C56.8720836,18.372093 55.1686123,18.8139491 53.6453488,19.6976744 C52.1220854,20.5813998 50.924423,21.8197595 50.0523256,23.4127907 C49.1802282,25.0058219 48.744186,26.8139434 48.744186,28.8372093 C48.744186,30.9069871 49.1860421,32.7383641 50.0697674,34.3313953 C50.9534928,35.9244266 52.1569691,37.1569724 53.6802326,38.0290698 C55.203496,38.9011672 56.8953395,39.3372093 58.755814,39.3372093 C60.9651273,39.3372093 62.9883629,38.7325642 64.8255814,37.5232558 C65.0116288,37.4069762 65.2093013,37.3488372 65.4186047,37.3488372 C65.7441877,37.3488372 66.0116269,37.4883707 66.2209302,37.7674419 C66.3837217,37.9534893 66.4651163,38.1744173 66.4651163,38.4302326 C66.4651163,38.8023274 66.3023272,39.0813944 65.9767442,39.2674419 C65.0697629,39.872096 63.953495,40.3779049 62.627907,40.7848837 C61.302319,41.1918625 60.0116342,41.3953488 58.755814,41.3953488 C56.5465006,41.3953488 54.5058233,40.8662844 52.6337209,39.8081395 C50.7616185,38.7499947 49.2732613,37.2674514 48.1686047,35.3604651 C47.063948,33.4534788 46.5116279,31.279082 46.5116279,28.8372093 C46.5116279,26.4883603 47.0581341,24.3546608 48.1511628,22.4360465 C49.2441915,20.5174323 50.7209209,19.0174473 52.5813953,17.9360465 C54.4418698,16.8546458 56.4999887,16.3139535 58.755814,16.3139535 C60.058146,16.3139535 61.3313891,16.4999981 62.5755814,16.872093 C63.8197737,17.2441879 64.9418555,17.7674385 65.9418605,18.4418605 Z M89.1046512,39.6511628 C89.151163,39.8372102 89.1744186,39.9767437 89.1744186,40.0697674 C89.1744186,40.3720945 89.0697685,40.6162781 88.8604651,40.8023256 C88.6511617,40.988373 88.4069781,41.0813953 88.127907,41.0813953 C87.8953477,41.0813953 87.6918613,41.0174425 87.5174419,40.8895349 C87.3430224,40.7616273 87.2093028,40.5930243 87.1162791,40.3837209 L84.5,34 L73.1627907,34 L70.5813953,40.3837209 C70.3953479,40.8488395 70.0813976,41.0813953 69.6395349,41.0813953 C69.3139519,41.0813953 69.0697683,41.0000008 68.9069767,40.8372093 C68.7441852,40.6744178 68.6511629,40.4534898 68.627907,40.1744186 L68.627907,40.0697674 C68.627907,39.9302319 68.6395348,39.8255817 68.6627907,39.755814 L77.872093,17.2209302 C78.0581405,16.7558116 78.4069742,16.5232558 78.9186047,16.5232558 C79.151164,16.5232558 79.3546503,16.5872087 79.5290698,16.7151163 C79.7034892,16.8430239 79.8372088,17.0116269 79.9302326,17.2209302 L89.1046512,39.6511628 Z M73.9651163,31.9418605 L83.6627907,31.9418605 L78.7790698,20.0116279 L73.9651163,31.9418605 Z M107.27907,16.627907 C107.581397,16.627907 107.831394,16.7209293 108.02907,16.9069767 C108.226745,17.0930242 108.325581,17.3372078 108.325581,17.6395349 C108.325581,17.941862 108.226745,18.1802317 108.02907,18.3546512 C107.831394,18.5290706 107.581397,18.6162791 107.27907,18.6162791 L100.05814,18.6162791 L100.05814,40 C100.05814,40.3023271 99.9534894,40.5523246 99.744186,40.75 C99.5348827,40.9476754 99.2790713,41.0465116 98.9767442,41.0465116 C98.6511612,41.0465116 98.3895359,40.9476754 98.1918605,40.75 C97.9941851,40.5523246 97.8953488,40.3023271 97.8953488,40 L97.8953488,18.6162791 L90.6744186,18.6162791 C90.3720915,18.6162791 90.122094,18.5232567 89.9244186,18.3372093 C89.7267432,18.1511619 89.627907,17.9069783 89.627907,17.6046512 C89.627907,17.32558 89.7267432,17.0930242 89.9244186,16.9069767 C90.122094,16.7209293 90.3720915,16.627907 90.6744186,16.627907 L107.27907,16.627907 Z M129.255814,39.6511628 C129.302326,39.8372102 129.325581,39.9767437 129.325581,40.0697674 C129.325581,40.3720945 129.220931,40.6162781 129.011628,40.8023256 C128.802325,40.988373 128.558141,41.0813953 128.27907,41.0813953 C128.04651,41.0813953 127.843024,41.0174425 127.668605,40.8895349 C127.494185,40.7616273 127.360466,40.5930243 127.267442,40.3837209 L124.651163,34 L113.313953,34 L110.732558,40.3837209 C110.546511,40.8488395 110.23256,41.0813953 109.790698,41.0813953 C109.465115,41.0813953 109.220931,41.0000008 109.05814,40.8372093 C108.895348,40.6744178 108.802326,40.4534898 108.77907,40.1744186 L108.77907,40.0697674 C108.77907,39.9302319 108.790698,39.8255817 108.813953,39.755814 L118.023256,17.2209302 C118.209303,16.7558116 118.558137,16.5232558 119.069767,16.5232558 C119.302327,16.5232558 119.505813,16.5872087 119.680233,16.7151163 C119.854652,16.8430239 119.988372,17.0116269 120.081395,17.2209302 L129.255814,39.6511628 Z M114.116279,31.9418605 L123.813953,31.9418605 L118.930233,20.0116279 L114.116279,31.9418605 Z M147.116279,38.9883721 C147.418606,38.9883721 147.668604,39.0813944 147.866279,39.2674419 C148.063954,39.4534893 148.162791,39.6976729 148.162791,40 C148.162791,40.3023271 148.063954,40.5523246 147.866279,40.75 C147.668604,40.9476754 147.418606,41.0465116 147.116279,41.0465116 L134.662791,41.0465116 C134.360464,41.0465116 134.110466,40.9476754 133.912791,40.75 C133.715115,40.5523246 133.616279,40.3023271 133.616279,40 L133.616279,17.6744186 C133.616279,17.3720915 133.720929,17.122094 133.930233,16.9244186 C134.139536,16.7267432 134.406975,16.627907 134.732558,16.627907 C135.034885,16.627907 135.290697,16.7267432 135.5,16.9244186 C135.709303,17.122094 135.813953,17.3720915 135.813953,17.6744186 L135.813953,38.9883721 L147.116279,38.9883721 Z M165.674419,17.5348837 C165.674419,17.6976752 165.604652,17.9186033 165.465116,18.1976744 L157.686047,28.9069767 L157.686047,40 C157.686047,40.3023271 157.581396,40.5523246 157.372093,40.75 C157.16279,40.9476754 156.906978,41.0465116 156.604651,41.0465116 C156.302324,41.0465116 156.052327,40.9476754 155.854651,40.75 C155.656976,40.5523246 155.55814,40.3023271 155.55814,40 L155.55814,28.9418605 L147.744186,18.2674419 C147.558139,18.0581385 147.465116,17.8139549 147.465116,17.5348837 C147.465116,17.2558126 147.581394,17.011629 147.813953,16.8023256 C148.046513,16.5930222 148.302324,16.4883721 148.581395,16.4883721 C148.95349,16.4883721 149.244185,16.6511612 149.453488,16.9767442 L156.674419,26.8139535 L163.72093,16.9767442 C163.976745,16.6511612 164.279068,16.4883721 164.627907,16.4883721 C164.906978,16.4883721 165.151162,16.5988361 165.360465,16.8197674 C165.569768,17.0406988 165.674419,17.2790685 165.674419,17.5348837 Z M185.976744,39.0581395 C186.279071,39.0581395 186.529069,39.1569758 186.726744,39.3546512 C186.92442,39.5523266 187.023256,39.7790685 187.023256,40.0348837 C187.023256,40.3372108 186.92442,40.5813944 186.726744,40.7674419 C186.529069,40.9534893 186.279071,41.0465116 185.976744,41.0465116 L169.267442,41.0465116 C168.941859,41.0465116 168.680234,40.9360476 168.482558,40.7151163 C168.284883,40.4941849 168.186047,40.2441874 168.186047,39.9651163 C168.186047,39.7558129 168.255813,39.5465127 168.395349,39.3372093 L184.093023,18.6162791 L170.139535,18.6162791 C169.837208,18.6162791 169.58721,18.5232567 169.389535,18.3372093 C169.191859,18.1511619 169.093023,17.9069783 169.093023,17.6046512 C169.093023,17.32558 169.191859,17.0930242 169.389535,16.9069767 C169.58721,16.7209293 169.837208,16.627907 170.139535,16.627907 L186.011628,16.627907 C186.360467,16.627907 186.639534,16.7325571 186.848837,16.9418605 C187.058141,17.1511638 187.162791,17.3953474 187.162791,17.6744186 C187.162791,17.883722 187.093024,18.0930222 186.953488,18.3023256 L171.290698,39.0581395 L185.976744,39.0581395 Z M205.895349,38.9883721 C206.197676,38.9883721 206.447673,39.0930222 206.645349,39.3023256 C206.843024,39.511629 206.94186,39.7558126 206.94186,40.0348837 C206.94186,40.3372108 206.843024,40.5813944 206.645349,40.7674419 C206.447673,40.9534893 206.197676,41.0465116 205.895349,41.0465116 L193.093023,41.0465116 C192.790696,41.0465116 192.540699,40.9476754 192.343023,40.75 C192.145348,40.5523246 192.046512,40.3023271 192.046512,40 L192.046512,17.6744186 C192.046512,17.3720915 192.145348,17.122094 192.343023,16.9244186 C192.540699,16.7267432 192.790696,16.627907 193.093023,16.627907 L205.895349,16.627907 C206.197676,16.627907 206.447673,16.7267432 206.645349,16.9244186 C206.843024,17.122094 206.94186,17.3720915 206.94186,17.6744186 C206.94186,17.9767457 206.843024,18.2209293 206.645349,18.4069767 C206.447673,18.5930242 206.197676,18.6860465 205.895349,18.6860465 L194.244186,18.6860465 L194.244186,27.4418605 L204.325581,27.4418605 C204.627908,27.4418605 204.877906,27.5406967 205.075581,27.7383721 C205.273257,27.9360475 205.372093,28.186045 205.372093,28.4883721 C205.372093,28.7906992 205.273257,29.0348828 205.075581,29.2209302 C204.877906,29.4069777 204.627908,29.5 204.325581,29.5 L194.244186,29.5 L194.244186,38.9883721 L205.895349,38.9883721 Z M234.883721,38.9883721 C235.186048,38.9883721 235.436046,39.0813944 235.633721,39.2674419 C235.831396,39.4534893 235.930233,39.6976729 235.930233,40 C235.930233,40.3023271 235.831396,40.5523246 235.633721,40.75 C235.436046,40.9476754 235.186048,41.0465116 234.883721,41.0465116 L222.430233,41.0465116 C222.127905,41.0465116 221.877908,40.9476754 221.680233,40.75 C221.482557,40.5523246 221.383721,40.3023271 221.383721,40 L221.383721,17.6744186 C221.383721,17.3720915 221.488371,17.122094 221.697674,16.9244186 C221.906978,16.7267432 222.174417,16.627907 222.5,16.627907 C222.802327,16.627907 223.058138,16.7267432 223.267442,16.9244186 C223.476745,17.122094 223.581395,17.3720915 223.581395,17.6744186 L223.581395,38.9883721 L234.883721,38.9883721 Z M258.151163,39.6511628 C258.197675,39.8372102 258.22093,39.9767437 258.22093,40.0697674 C258.22093,40.3720945 258.11628,40.6162781 257.906977,40.8023256 C257.697673,40.988373 257.45349,41.0813953 257.174419,41.0813953 C256.941859,41.0813953 256.738373,41.0174425 256.563953,40.8895349 C256.389534,40.7616273 256.255814,40.5930243 256.162791,40.3837209 L253.546512,34 L242.209302,34 L239.627907,40.3837209 C239.44186,40.8488395 239.127909,41.0813953 238.686047,41.0813953 C238.360463,41.0813953 238.11628,41.0000008 237.953488,40.8372093 C237.790697,40.6744178 237.697675,40.4534898 237.674419,40.1744186 L237.674419,40.0697674 C237.674419,39.9302319 237.686046,39.8255817 237.709302,39.755814 L246.918605,17.2209302 C247.104652,16.7558116 247.453486,16.5232558 247.965116,16.5232558 C248.197676,16.5232558 248.401162,16.5872087 248.575581,16.7151163 C248.750001,16.8430239 248.88372,17.0116269 248.976744,17.2209302 L258.151163,39.6511628 Z M243.011628,31.9418605 L252.709302,31.9418605 L247.825581,20.0116279 L243.011628,31.9418605 Z M275.55814,28.0697674 C276.953495,28.4186064 278.093019,29.1162738 278.976744,30.1627907 C279.86047,31.2093076 280.302326,32.5697591 280.302326,34.244186 C280.302326,36.5232672 279.598844,38.2267385 278.19186,39.3546512 C276.784877,40.4825638 275.034894,41.0465116 272.94186,41.0465116 L263.55814,41.0465116 C263.255812,41.0465116 263.005815,40.9476754 262.80814,40.75 C262.610464,40.5523246 262.511628,40.3023271 262.511628,40 L262.511628,17.6744186 C262.511628,17.3720915 262.610464,17.122094 262.80814,16.9244186 C263.005815,16.7267432 263.255812,16.627907 263.55814,16.627907 L272.802326,16.627907 C274.755824,16.627907 276.284878,17.1627853 277.389535,18.2325581 C278.494192,19.3023309 279.046512,20.7674326 279.046512,22.627907 C279.046512,23.8604713 278.744189,24.9651114 278.139535,25.9418605 C277.534881,26.9186095 276.674424,27.6279048 275.55814,28.0697674 Z M276.813953,22.8023256 C276.813953,21.5232494 276.43605,20.5174455 275.680233,19.7848837 C274.924415,19.0523219 273.8721,18.6860465 272.523256,18.6860465 L264.744186,18.6860465 L264.744186,27.4069767 L272.523256,27.4069767 C273.779076,27.3837208 274.808136,26.9767481 275.610465,26.1860465 C276.412795,25.3953449 276.813953,24.2674492 276.813953,22.8023256 Z M272.837209,38.9883721 C274.395357,38.9883721 275.656972,38.5930272 276.622093,37.8023256 C277.587214,37.011624 278.069767,35.8255893 278.069767,34.244186 C278.069767,32.6162709 277.575586,31.4186085 276.587209,30.6511628 C275.598832,29.8837171 274.325589,29.5 272.767442,29.5 L264.744186,29.5 L264.744186,38.9883721 L272.837209,38.9883721 Z M291.813953,41.3953488 C290.139527,41.3953488 288.656983,41.1162819 287.366279,40.5581395 C286.075575,39.9999972 284.825587,39.1279129 283.616279,37.9418605 C283.337208,37.7093012 283.197674,37.4302342 283.197674,37.1046512 C283.197674,36.82558 283.308138,36.5697686 283.52907,36.3372093 C283.750001,36.10465 283.999999,35.9883721 284.27907,35.9883721 C284.558141,35.9883721 284.813952,36.10465 285.046512,36.3372093 C286.860474,38.3372193 289.127893,39.3372093 291.848837,39.3372093 C293.523264,39.3372093 294.912785,38.9418644 296.017442,38.1511628 C297.122099,37.3604612 297.674419,36.3255878 297.674419,35.0465116 C297.674419,34.0465066 297.401166,33.2151196 296.854651,32.5523256 C296.308137,31.8895316 295.593028,31.3488393 294.709302,30.9302326 C293.825577,30.5116258 292.697681,30.0813976 291.325581,29.6395349 C289.837202,29.1976722 288.587214,28.709305 287.575581,28.1744186 C286.563948,27.6395322 285.744189,26.9244231 285.116279,26.0290698 C284.488369,25.1337165 284.174419,24.0000069 284.174419,22.627907 C284.174419,21.3953427 284.505811,20.3023303 285.168605,19.3488372 C285.831399,18.3953441 286.761622,17.6453516 287.959302,17.0988372 C289.156983,16.5523228 290.534876,16.2790698 292.093023,16.2790698 C293.511635,16.2790698 294.843017,16.5174395 296.087209,16.994186 C297.331402,17.4709326 298.325578,18.1511584 299.069767,19.0348837 C299.418606,19.4302345 299.593023,19.7674405 299.593023,20.0465116 C299.593023,20.3023269 299.476745,20.5406966 299.244186,20.7616279 C299.011627,20.9825592 298.755815,21.0930233 298.476744,21.0930233 C298.244185,21.0930233 298.046512,21.0116287 297.883721,20.8488372 C297.255811,20.1046474 296.41861,19.5000023 295.372093,19.0348837 C294.325576,18.5697651 293.232564,18.3372093 292.093023,18.3372093 C290.39534,18.3372093 289.011633,18.7151125 287.94186,19.4709302 C286.872088,20.226748 286.337209,21.2558074 286.337209,22.5581395 C286.337209,23.9069835 286.848832,24.9418569 287.872093,25.6627907 C288.895354,26.3837245 290.360456,27.0465086 292.267442,27.6511628 C293.918613,28.1395373 295.267437,28.6395323 296.313953,29.1511628 C297.36047,29.6627933 298.215113,30.3895302 298.877907,31.3313953 C299.540701,32.2732605 299.872093,33.5116202 299.872093,35.0465116 C299.872093,36.2325641 299.529073,37.3081347 298.843023,38.2732558 C298.156973,39.2383769 297.203494,39.9999972 295.982558,40.5581395 C294.761622,41.1162819 293.372101,41.3953488 291.813953,41.3953488 Z" id="CATALYZE-LABS"></path>
            <g id="spark" fill-rule="nonzero">
                <path d="M34.7297514,17.9603047 C34.5811949,17.6439455 34.2630313,17.4418605 33.9135926,17.4418605 L24.1100642,17.4418605 L28.7718524,1.68945469 C28.8945469,1.2744587 28.7056937,0.831194868 28.3213713,0.632117081 C27.9364475,0.433039294 27.4655172,0.535284683 27.1978749,0.874498797 L8.18023256,25.0026063 C7.96672013,25.2744587 7.92642342,25.643745 8.07738573,25.9546913 C8.22834804,26.2656375 8.54410585,26.4635124 8.8893344,26.4635124 L18.6230954,26.4635124 L13.0441059,42.1828388 C12.8979551,42.5948276 13.0681636,43.0525261 13.4482759,43.2690457 C13.5884122,43.3484362 13.7417803,43.3869286 13.893344,43.3869286 C14.1549719,43.3869286 14.4117883,43.2738573 14.5886127,43.0609463 L34.6076584,18.9202085 C34.8313953,18.6507618 34.8789094,18.276664 34.7297514,17.9603047 Z M16.4446672,37.9955894 L20.750401,25.8626704 C20.8484362,25.5866079 20.8063352,25.2798717 20.6373296,25.0404972 C20.468324,24.8017241 20.1934643,24.659182 19.9005613,24.659182 L10.749599,24.659182 L25.7105052,5.67822775 L22.0380914,18.0878107 C21.957498,18.3608661 22.010425,18.6555734 22.1806335,18.8835204 C22.3502406,19.112069 22.6178829,19.2461909 22.9023657,19.2461909 L31.9931836,19.2461909 L16.4446672,37.9955894 Z M9.90336808,36.1990778 L10.7886929,38.0178428 C10.9288292,38.3059342 11.2169206,38.4731355 11.5170409,38.4731355 C11.6361267,38.4731355 11.7564154,38.446672 11.8706897,38.3913392 C12.2724539,38.1958701 12.4402566,37.7111067 12.244186,37.308741 L11.3588613,35.4899759 C11.1627907,35.0882117 10.6780273,34.920409 10.276263,35.1164796 C9.87510024,35.3119487 9.70789896,35.7967121 9.90336808,36.1990778 Z M24.3518444,45.8221732 L22.4398557,45.1635926 C22.0176423,45.0180433 21.5563352,45.2429832 21.4107859,45.6651965 C21.2652366,46.0880112 21.489575,46.5487169 21.9123897,46.6942662 L23.8243785,47.3528468 C23.9115878,47.382919 24.0006014,47.3973536 24.0878107,47.3973536 C24.4240176,47.3973536 24.7379711,47.1868484 24.8534483,46.851243 C24.999599,46.4284282 24.7746592,45.9677225 24.3518444,45.8221732 Z M12.4883721,46.3334002 C12.0992382,46.1090617 11.6048516,46.2443865 11.382919,46.6323176 L9.35605453,50.1627907 C9.13291901,50.5507217 9.2670409,51.0457097 9.65497193,51.2682438 C9.7818765,51.3416199 9.92080994,51.3759022 10.0573376,51.3759022 C10.3382117,51.3759022 10.6106656,51.2297514 10.760425,50.9693264 L12.7872895,47.4388532 C13.010425,47.0509222 12.8763031,46.5559342 12.4883721,46.3334002 Z M8.89715317,52.5944266 C8.50862069,52.3718925 8.01423416,52.5060144 7.79170008,52.8939455 L6.60204491,54.9665196 C6.37951083,55.3544507 6.51363272,55.8494387 6.90156375,56.0719727 C7.02846832,56.1447474 7.16680032,56.1796311 7.30332799,56.1796311 C7.58420209,56.1796311 7.85665597,56.0334804 8.0064154,55.7724539 L9.19607057,53.6998797 C9.41920609,53.3119487 9.2850842,52.8169607 8.89715317,52.5944266 Z M3.7542101,40.4320369 L7.57698476,41.7510024 C7.66479551,41.7810746 7.7532077,41.7955092 7.84101844,41.7955092 C8.17722534,41.7955092 8.49117883,41.585004 8.60665597,41.2493986 C8.75220529,40.8265838 8.52786688,40.3658781 8.10505213,40.2197273 L4.28227747,38.9007618 C3.85825982,38.755814 3.39815557,38.9795509 3.25260626,39.4023657 C3.10705694,39.824579 3.33139535,40.2858861 3.7542101,40.4320369 Z M28.1385325,47.4069767 L26.9566961,46.9979952 C26.5350842,46.8524459 26.0737771,47.0761828 25.9270249,47.4989976 C25.7808741,47.9218123 26.0046111,48.382518 26.4280273,48.5286688 L27.6098637,48.9376504 C27.6976744,48.9677225 27.7866881,48.9821572 27.8744988,48.9821572 C28.2101043,48.9821572 28.5240577,48.771652 28.6395349,48.436648 C28.7850842,48.0144346 28.5613472,47.5531275 28.1385325,47.4069767 Z M28.3712911,36.5719727 L20.19166,40.5559342 C19.7892943,40.7520048 19.622093,41.2361668 19.8181636,41.6385325 C19.9582999,41.9266239 20.2463913,42.0938252 20.5465116,42.0938252 C20.6655974,42.0938252 20.7864876,42.0673617 20.9001604,42.0120289 L29.0797915,38.0280674 C29.4821572,37.8319968 29.6493585,37.3478348 29.4532879,36.9454691 C29.2578188,36.5431034 28.7724539,36.3765036 28.3712911,36.5719727 Z M9.87630313,44.0960305 C9.67963111,43.6936648 9.19607057,43.5264635 8.79370489,43.7225341 L0.615276664,47.7064956 C0.21351243,47.9025662 0.0463111468,48.3873296 0.241780273,48.7890938 C0.3819166,49.0771852 0.670008019,49.2443865 0.970128308,49.2443865 C1.08921411,49.2443865 1.21010425,49.217923 1.32437851,49.1625902 L9.50280674,45.1786287 C9.90517241,44.9831596 10.0723737,44.4983962 9.87630313,44.0960305 Z M17.1760225,46.6118685 C16.9799519,46.2095028 16.4951885,46.042903 16.0934242,46.2383721 C15.69166,46.4338412 15.5238573,46.9186047 15.7199278,47.3209703 L17.8875301,51.7722534 C18.0276664,52.0603448 18.3157578,52.2275461 18.6158781,52.2275461 C18.7349639,52.2275461 18.8552526,52.2010826 18.9695269,52.1457498 C19.3712911,51.9502807 19.5390938,51.4655172 19.3430233,51.0631516 L17.1760225,46.6118685 Z M8.72694467,33.7836808 C8.86708099,34.0717723 9.15517241,34.2389735 9.4552927,34.2389735 C9.57437851,34.2389735 9.69526864,34.21251 9.8095429,34.1571772 C10.2113071,33.9611067 10.3785084,33.4763432 10.1830393,33.074579 L8.41238974,29.4406576 C8.21631917,29.0388933 7.73215718,28.8710906 7.3297915,29.0671612 C6.92802727,29.2632318 6.76082598,29.7479952 6.95629511,30.1497594 L8.72694467,33.7836808 Z" id="Shape"></path>
            </g>
        </g>
    </g>
</svg>